# xmcd CD database file
#
# Track frame offsets:
#	182
#	14210
#	25807
#	36577
#	49397
#	57465
#	68212
#	80467
#	93027
#	106440
#	118920
#	133510
#	145310
#	156402
#	171055
#	184342
#	201932
#	213837
#	224520
#
# Disc length: 3151 seconds
#
# Revision: 4
# Processed by: cddbd v1.5.2PL0 Copyright (c) Steve Scherf et al.
# Submitted via: jetAudio 7
#
DISCID=290c4d13
DTITLE=Various Artist - Country Music's Greatest Hits Disc 2
DYEAR=1997
DGENRE=Country
TTITLE0=All I Ever Need Is You
TTITLE1=A Thing Called Love
TTITLE2=Your Cheatin' Heart
TTITLE3=I'll Hold You In My Heart
TTITLE4=The Language Of Love
TTITLE5=Near You
TTITLE6=Always
TTITLE7=I Love You Because
TTITLE8=Let It Be Me
TTITLE9=By The Time I Get To Phoenix
TTITLE10=Gentle On My Mind
TTITLE11=Bouquet Of Roses
TTITLE12=Someday [You'll Want Me To Want You]
TTITLE13=Cry Me A River
TTITLE14=I Will Always Love You
TTITLE15=Lady
TTITLE16=Misty Blue
TTITLE17=Love Is Like A Butterfly
TTITLE18=Let Your Love Flow
EXTD=
EXTT0=
EXTT1=
EXTT2=
EXTT3=
EXTT4=
EXTT5=
EXTT6=
EXTT7=
EXTT8=
EXTT9=
EXTT10=
EXTT11=
EXTT12=
EXTT13=
EXTT14=
EXTT15=
EXTT16=
EXTT17=
EXTT18=
PLAYORDER=
